<svg t="1584631358736" class="icon" viewBox="0 0 1024 1024" version="1.1" xmlns="http://www.w3.org/2000/svg" p-id="2686" width="128" height="128"><path d="M803.362133 0 218.692267 0C138.308267 0 72.533333 65.774933 72.533333 146.158933l0 730.8288c0 80.384 65.774933 146.158933 146.158933 146.158933l584.669867 0c80.384 0 146.158933-65.774933 146.158933-146.158933L949.521067 146.158933C949.521067 65.774933 883.746133 0 803.362133 0L803.362133 0zM255.249067 146.158933l219.2384 0c21.9136 0 36.5568 14.609067 36.5568 36.5568 0 21.9136-14.609067 36.5568-36.5568 36.5568L255.249067 219.272533c-21.9136 0-36.5568-14.609067-36.5568-36.5568C218.692267 160.768 233.301333 146.158933 255.249067 146.158933L255.249067 146.158933zM766.805333 876.987733 255.249067 876.987733c-21.9136 0-36.5568-14.609067-36.5568-36.5568s14.609067-36.5568 36.5568-36.5568l511.5904 0c21.9136 0 36.5568 14.609067 36.5568 36.5568S788.753067 876.987733 766.805333 876.987733L766.805333 876.987733zM766.805333 657.749333 255.249067 657.749333c-21.9136 0-36.5568-14.609067-36.5568-36.5568 0-21.9136 14.609067-36.5568 36.5568-36.5568l511.5904 0c21.9136 0 36.5568 14.609067 36.5568 36.5568C803.362133 643.106133 788.753067 657.749333 766.805333 657.749333L766.805333 657.749333zM766.805333 438.4768 255.249067 438.4768c-21.9136 0-36.5568-14.609067-36.5568-36.5568 0-21.9136 14.609067-36.5568 36.5568-36.5568l511.5904 0c21.9136 0 36.5568 14.609067 36.5568 36.5568C803.362133 423.867733 788.753067 438.4768 766.805333 438.4768L766.805333 438.4768z" p-id="2687"></path></svg>