<svg t="1584326302920" class="icon" viewBox="0 0 1024 1024" version="1.1" xmlns="http://www.w3.org/2000/svg" p-id="1765" width="128" height="128"><path d="M921.6 102.4v819.2H102.4V102.4h819.2m0-102.4H102.4C46.08 0 0 46.08 0 102.4v819.2c0 56.32 46.08 102.4 102.4 102.4h819.2c56.32 0 102.4-46.08 102.4-102.4V102.4c0-56.32-46.08-102.4-102.4-102.4z" p-id="1766"></path><path d="M665.6 460.8h-102.4V358.4c0-25.6-25.6-51.2-51.2-51.2s-51.2 25.6-51.2 51.2v102.4H358.4c-25.6 0-51.2 25.6-51.2 51.2s25.6 51.2 51.2 51.2h102.4v102.4c0 25.6 25.6 51.2 51.2 51.2s51.2-25.6 51.2-51.2v-102.4h102.4c25.6 0 51.2-25.6 51.2-51.2s-25.6-51.2-51.2-51.2z" p-id="1767"></path></svg>