<svg t="1585278142722" class="icon" viewBox="0 0 1024 1024" version="1.1" xmlns="http://www.w3.org/2000/svg" p-id="1768" width="128" height="128"><path d="M170.666667 0h682.666666a170.666667 170.666667 0 0 1 170.666667 170.666667v682.666666a170.666667 170.666667 0 0 1-170.666667 170.666667H170.666667a170.666667 170.666667 0 0 1-170.666667-170.666667V170.666667a170.666667 170.666667 0 0 1 170.666667-170.666667z m0 56.888889a113.777778 113.777778 0 0 0-113.777778 113.777778v682.666666a113.777778 113.777778 0 0 0 113.777778 113.777778h682.666666a113.777778 113.777778 0 0 0 113.777778-113.777778V170.666667a113.777778 113.777778 0 0 0-113.777778-113.777778H170.666667z m178.289777 573.44a30.264889 30.264889 0 0 1-27.704888 18.659555 30.264889 30.264889 0 0 1-21.333334-8.760888L179.484444 519.736889a30.264889 30.264889 0 0 1 0-42.666667L299.918222 356.693333a30.264889 30.264889 0 0 1 42.666667 42.666667L243.370667 498.346667l99.214222 99.157333c8.533333 8.647111 11.036444 21.617778 6.371555 32.768z m354.986667 9.898667a30.264889 30.264889 0 0 1-21.276444 8.760888 30.264889 30.264889 0 0 1-21.333334-51.427555l99.214223-99.157333-99.214223-99.157334a30.264889 30.264889 0 0 1 42.666667-42.666666l120.490667 120.490666a30.264889 30.264889 0 0 1 0 42.666667l-120.490667 120.490667z m-295.537778 112.64a30.151111 30.151111 0 0 1-53.816889-27.022223l240.924445-481.848889a30.151111 30.151111 0 0 1 53.873778 26.965334l-240.981334 481.848889z" p-id="1769"></path></svg>