<svg t="1581405008549" class="icon" viewBox="0 0 1024 1024" version="1.1" xmlns="http://www.w3.org/2000/svg" p-id="2108" width="128" height="128"><path d="M237.056 609.28c18.318222-0.853333 35.328-1.991111 52.167111-2.275556 73.159111-1.308444 145.009778 7.395556 213.333333 34.986667 33.336889 13.482667 65.649778 29.013333 94.663112 50.972445 23.836444 17.976889 29.013333 40.391111 18.204444 73.386666-6.826667 20.48-20.48 35.84-37.660444 49.379556-40.561778 31.573333-83.057778 60.131556-131.868445 76.231111-34.190222 11.320889-69.745778 19.911111-105.415111 25.429333-46.876444 7.281778-94.378667 10.524444-141.710222 14.904889-9.728 0.967111-19.626667-0.341333-29.354667-0.341333-5.063111 0-6.314667-2.56-6.485333-6.940445-1.308444-21.617778-2.275556-43.292444-4.209778-64.853333-2.446222-27.875556-5.233778-55.808-8.476444-83.512889-4.380444-38.798222-9.216-77.368889-14.108445-115.996444-5.006222-40.675556-10.24-81.237333-15.075555-121.912889-4.835556-39.765333-9.216-79.644444-14.392889-119.409778-5.859556-45.397333-12.344889-90.794667-18.488889-136.192a1328.014222 1328.014222 0 0 0-31.175111-159.288889c-0.625778-2.275556 1.308444-7.281778 3.242666-7.964444 45.909333-18.432 91.989333-36.408889 137.841778-54.784 15.246222-6.144 16.554667-7.964444 16.725333 11.377777 0.170667 82.204444 0.512 164.408889 1.763556 246.670223 0.682667 42.780444 2.275556 85.617778 5.233778 128.284444 3.527111 52.053333 9.102222 104.106667 13.767111 156.16 0 2.275556 0.967111 4.380444 1.479111 5.688889z m91.591111 238.705778l125.724445-95.232c-5.233778-7.395556-119.694222-52.337778-146.659556-58.368 6.826667 50.744889 13.824 101.376 20.935111 153.6z m475.022222-16.213334c-21.902222-221.354667-40.391111-445.155556-82.716444-667.704888 13.767111-1.592889 27.591111-3.527111 41.528889-4.664889 16.042667-1.479111 32.256-2.104889 48.355555-3.413334 13.425778-1.137778 18.432 2.446222 19.228445 15.587556 2.446222 35.157333 4.551111 70.371556 6.997333 105.528889 3.242667 47.559111 6.656 95.232 10.069333 142.734222 2.446222 34.190222 4.551111 68.608 7.281778 102.798222 3.072 37.489778 6.485333 74.808889 9.898667 112.241778 2.446222 27.591111 4.721778 55.296 7.452444 82.887111 2.901333 29.809778 6.144 59.676444 9.272889 89.486222 0.796444 8.590222 1.763556 17.180444 2.389334 25.827556 0.341333 4.664889-2.275556 5.347556-6.656 4.835555-23.836444-2.446222-47.672889-4.209778-73.102223-6.144z m-198.542222-320.625777c19.342222-2.787556 38.001778-5.859556 56.604445-7.964445 13.482667-1.592889 27.136-1.763556 40.561777-3.072 7.281778-0.625778 12.003556 1.934222 13.141334 9.102222 3.072 18.944 6.314667 38.115556 8.590222 57.230223 3.754667 31.800889 6.656 63.715556 10.069333 95.573333 2.901333 27.875556 5.859556 55.580444 9.102222 83.456 3.527111 29.866667 7.395556 59.505778 11.150223 89.201778 1.137778 8.760889 1.934222 17.635556 3.072 27.249778-27.249778 3.413333-53.816889 6.826667-81.92 10.524444-23.324444-120.32-46.648889-239.672889-70.314667-361.301333z m417.28 370.744889c-26.225778 0-51.541333 0.113778-76.8-0.341334-2.161778 0-5.859556-3.754667-6.030222-6.030222-3.925333-40.504889-7.338667-80.896-10.865778-121.457778l-10.24-112.867555c-3.584-38.741333-6.940444-77.482667-10.524444-116.280889-0.170667-2.275556-0.682667-4.380444-1.137778-7.793778 9.386667-1.137778 18.318222-2.844444 27.420444-2.844444 24.462222 0 48.924444 0.568889 73.614223 1.251555 6.314667 0.170667 9.102222 4.380444 9.386666 10.24 0.796444 12.117333 1.934222 24.120889 1.934222 36.295111 0.170667 57.059556-0.113778 114.346667 0.341334 171.406222 0.512 45.568 1.934222 91.306667 2.901333 136.874667v11.548445z m-363.235555-422.343112l-17.635556-139.776c15.189333-0.170667 30.435556-0.625778 45.511111-0.625777 5.063111 0 7.281778 2.730667 7.793778 8.248889 4.039111 42.496 8.248889 84.992 12.629333 129.137777-15.701333 0.796444-31.914667 1.877333-48.355555 3.015111z m305.493333-126.464c13.027556 0 26.737778-0.170667 40.732444 0 6.997333 0.170667 10.410667 2.901333 10.410667 11.207112-0.512 39.537778-0.170667 79.075556-0.170667 118.499555v8.931556l-50.801777-2.446223c-0.113778-44.942222-0.113778-89.998222-0.113778-136.192z m-363.235556 135.907556c-8.135111-45.283556-16.384-90.168889-24.632889-136.248889 14.791111-2.275556 29.525333-4.721778 44.088889-6.485333 6.485333-0.796444 5.347556 4.892444 5.688889 8.419555 1.763556 15.246222 3.072 30.321778 4.721778 45.568l7.623111 71.395556c0.284444 3.072 0 6.257778 0 9.671111-12.344889 2.616889-24.689778 5.12-37.489778 7.68z m296.106667-135.395556c13.824 0 27.591111 0.113778 41.187556-0.170666 6.200889-0.170667 8.476444 1.137778 8.305777 8.248889-0.512 18.944 0.170667 37.944889 0.341334 57.059555 0.113778 23.552 0 47.217778 0 70.542222-13.994667 1.479111-26.168889 2.616889-39.253334 4.096-3.413333-45.909333-6.997333-91.591111-10.581333-139.832888z" p-id="2109"></path></svg>