<svg t="1584155546468" class="icon" viewBox="0 0 1024 1024" version="1.1" xmlns="http://www.w3.org/2000/svg" p-id="2746" width="128" height="128"><path d="M853.333333 0 170.666667 0C76.8 0 0 76.8 0 170.666667l0 682.666667c0 93.866667 76.8 170.666667 170.666667 170.666667l682.666667 0c93.866667 0 170.666667-76.8 170.666667-170.666667L1024 170.666667C1024 76.8 947.2 0 853.333333 0zM768 640C768 665.6 750.933333 682.666667 725.333333 682.666667S682.666667 665.6 682.666667 640L682.666667 426.666667 512 426.666667l0 384C512 836.266667 494.933333 853.333333 469.333333 853.333333S426.666667 836.266667 426.666667 810.666667L426.666667 426.666667 256 426.666667l0 213.333333C256 665.6 238.933333 682.666667 213.333333 682.666667S170.666667 665.6 170.666667 640l0-256C170.666667 358.4 187.733333 341.333333 213.333333 341.333333L426.666667 341.333333 426.666667 256 298.666667 256C273.066667 256 256 238.933333 256 213.333333S273.066667 170.666667 298.666667 170.666667l162.133333 0c0 0 8.533333 0 8.533333 0s8.533333 0 8.533333 0l162.133333 0C665.6 170.666667 682.666667 187.733333 682.666667 213.333333S665.6 256 640 256L512 256l0 85.333333 213.333333 0C750.933333 341.333333 768 358.4 768 384L768 640z" p-id="2747"></path></svg>