<svg t="1582960628827" class="icon" viewBox="0 0 1025 1024" version="1.1" xmlns="http://www.w3.org/2000/svg" p-id="2555" width="128" height="128"><path d="M627.833103 96.006719A397.084596 397.084596 0 0 1 926.926289 395.099904H627.284644V96.006719M578.106119 0.209146a39.123436 39.123436 0 0 0-38.574977 39.123436v404.763027a39.123436 39.123436 0 0 0 39.123437 39.306256h404.945846a39.123436 39.123436 0 0 0 39.123437-41.500094A484.655278 484.655278 0 0 0 581.579695 0.209146a7.312792 7.312792 0 0 0-3.473576 0z" p-id="2556"></path><path d="M486.513402 587.243509a46.801868 46.801868 0 0 1-47.533147-46.619048V109.901023a47.167507 47.167507 0 0 0-57.222596-45.704949 484.655278 484.655278 0 1 0 575.516716 581.00131 46.801868 46.801868 0 0 0-45.522129-57.222596H486.513402z" p-id="2557"></path></svg>