<svg t="1586223930075" class="icon" viewBox="0 0 1024 1024" version="1.1" xmlns="http://www.w3.org/2000/svg" p-id="1681" width="128" height="128"><path d="M96 480h65.44A352.096 352.096 0 0 1 480 161.408V96h64v65.44A352.096 352.096 0 0 1 862.592 480H928v64h-65.44a352.096 352.096 0 0 1-318.528 318.56L544 928h-64v-65.44A352.096 352.096 0 0 1 161.408 544H96v-64z m129.76 0H256v64h-30.24A288.128 288.128 0 0 0 480 798.24V768h64v30.24a288.128 288.128 0 0 0 254.24-254.208L768 544v-64h30.24a288.128 288.128 0 0 0-254.208-254.24L544 256h-64v-30.24a288.128 288.128 0 0 0-254.24 254.208zM320 512a192 192 0 1 1 384 0 192 192 0 0 1-384 0z m64 0a128 128 0 1 0 256 0 128 128 0 0 0-256 0z" p-id="1682"></path></svg>