<svg t="1584631851774" class="icon" viewBox="0 0 1024 1024" version="1.1" xmlns="http://www.w3.org/2000/svg" p-id="6766" width="128" height="128"><path d="M170.666667 113.777778a56.888889 56.888889 0 0 0-56.888889 56.888889v682.666666a56.888889 56.888889 0 0 0 56.888889 56.888889h682.666666a56.888889 56.888889 0 0 0 56.888889-56.888889V170.666667a56.888889 56.888889 0 0 0-56.888889-56.888889H170.666667z m0-113.777778h682.666666a170.666667 170.666667 0 0 1 170.666667 170.666667v682.666666a170.666667 170.666667 0 0 1-170.666667 170.666667H170.666667a170.666667 170.666667 0 0 1-170.666667-170.666667V170.666667a170.666667 170.666667 0 0 1 170.666667-170.666667z" p-id="6767"></path><path d="M232.561778 718.620444a56.888889 56.888889 0 1 1-72.419556-87.779555l197.290667-162.702222a56.888889 56.888889 0 0 1 68.437333-3.015111l146.659556 100.693333 208.952889-193.365333a56.888889 56.888889 0 1 1 77.255111 83.512888l-242.346667 224.312889a56.888889 56.888889 0 0 1-70.826667 5.12L396.743111 583.111111l-164.181333 135.395556z" p-id="6768"></path></svg>