<svg t="1586224570713" class="icon" viewBox="0 0 1024 1024" version="1.1" xmlns="http://www.w3.org/2000/svg" p-id="4939" width="128" height="128"><path d="M647.270846 722.060203c17.350157-26.257014 27.468608-57.690934 27.468608-91.447758 0-91.715865-74.620511-166.336376-166.354795-166.336376-91.715865 0-166.336376 74.620511-166.336376 166.336376s74.620511 166.336376 166.336376 166.336376c37.718043 0 72.536037-12.623505 100.470249-33.855062l91.026156 98.604762c5.5279 5.984295 13.063527 9.013281 20.59813 9.013281 6.804986 0 13.628392-2.463098 19.010983-7.42511 11.366885-10.509355 12.078083-28.242228 1.587148-39.609113L647.270846 722.060203zM508.384659 740.901317c-60.808948 0-110.288872-49.479925-110.288872-110.288872S447.574688 520.323573 508.384659 520.323573c60.827367 0 110.307292 49.479925 110.307292 110.288872S569.212026 740.901317 508.384659 740.901317z" p-id="4940"></path><path d="M922.600589 732.374106c0.503467-2.099824 0.776689-4.2897 0.776689-6.54302L923.377278 193.370079c0-35.440164-31.362288-65.389266-68.489884-65.389266L165.495218 127.980813c-35.978423 0-64.147996 28.726252-64.147996 65.389266l0 537.76992c-22.181185 9.927093-37.365003 32.796964-37.365003 60.07933l0 37.365003c0 36.671201 27.421536 65.389266 62.414515 65.389266l460.69552 0c15.471366 0 28.024264-12.551874 28.024264-28.024264s-12.551874-28.02324-28.024264-28.02324L126.396735 837.926094c-5.03569 0-6.367011-6.112208-6.367011-9.340739l0-37.365003c0-0.382717 0.072655-9.340739 6.367011-9.340739l161.7755 0c15.471366 0 28.02324-12.551874 28.02324-28.024264 0-15.471366-12.551874-28.02324-28.02324-28.02324L157.393703 725.83211 157.393703 193.370079c0-0.957815 0.218988-9.341762 8.100492-9.341762l689.392176 0c6.40385 0 12.44238 5.263887 12.44238 9.341762l0 532.461007-37.365003 0c-15.471366 0-28.02324 12.551874-28.02324 28.02324 0 15.471366 12.551874 28.024264 28.02324 28.024264l64.038502 0c5.199419 0 10.691503 4.798283 10.691503 9.340739l0 37.365003c0 4.542456-5.492084 9.340739-10.691503 9.340739l-45.356001 0c-15.471366 0-28.02324 12.551874-28.02324 28.02324s12.551874 28.024264 28.02324 28.024264l45.356001 0c36.178991 0 66.739007-29.939893 66.739007-65.389266l0-37.365003C960.742281 765.725702 944.93527 743.081982 922.600589 732.374106z" p-id="4941"></path><path d="M699.187263 258.759345l-373.650025 0c-30.906917 0-56.047504 25.14161-56.047504 56.047504l0 37.365003c0 30.906917 25.14161 56.047504 56.047504 56.047504l373.650025 0c30.906917 0 56.047504-25.140587 56.047504-56.047504l0-37.365003C755.234767 283.899932 730.093157 258.759345 699.187263 258.759345zM717.869764 352.171851c0 10.299577-8.374738 18.682501-18.682501 18.682501l-373.650025 0c-10.307763 0-18.682501-8.382924-18.682501-18.682501l0-37.365003c0-10.299577 8.374738-18.682501 18.682501-18.682501l373.650025 0c10.307763 0 18.682501 8.383948 18.682501 18.682501L717.869764 352.171851z" p-id="4942"></path></svg>