<svg t="1582809389568" class="icon" viewBox="0 0 2048 1024" version="1.1" xmlns="http://www.w3.org/2000/svg" p-id="4299" width="128" height="128"><path d="M1995.502933 0h-667.648c-36.6592 0-58.709333 29.354667-58.709333 58.709333v44.032H58.709333c-36.727467 0-58.709333 29.354667-58.709333 58.709334v784.930133c0 36.727467 29.354667 58.709333 58.709333 58.709333h1929.489067c36.6592 0 58.709333-29.354667 58.709333-58.709333V58.709333C2054.144 29.354667 2024.789333 0 1995.434667 0zM513.570133 895.044267H168.7552c-22.050133 0-44.032-21.981867-44.032-44.032v-579.584c0-21.981867 21.981867-44.032 44.032-44.032h58.709333c21.981867 0 43.963733 22.050133 43.963734 44.032v476.910933H520.874667c22.050133 0 44.032 21.981867 44.032 43.963733v58.709334c-19.592533 29.354667-36.6592 44.032-51.336534 44.032z m660.2752-220.091734l-205.482666 205.4144c-14.609067 14.677333-51.336533 14.677333-51.336534 14.677334s-36.6592 0-51.336533-14.677334L660.2752 674.952533c-14.677333-7.304533-14.677333-29.354667-7.304533-44.032V271.428267c0-21.981867 21.981867-44.032 43.963733-44.032h58.709333c21.981867 0 44.032 22.050133 44.032 44.032V608.938667l124.7232 124.7232 124.7232-124.7232V278.801067c0-22.050133 21.981867-44.032 44.032-44.032h58.709334c21.981867 0 43.963733 21.981867 43.963733 44.032v344.746666c-9.762133 29.354667-17.066667 46.4896-21.981867 51.4048z m755.643734-139.400533c0 21.981867-21.981867 44.032-44.032 44.032h-352.119467v168.7552h352.119467c22.050133 0 44.032 21.981867 44.032 43.963733v58.709334c0 22.050133-21.981867 44.032-44.032 44.032h-454.8608c-21.981867 0-44.032-21.981867-44.032-44.032v-374.101334c0-22.050133 22.050133-44.032 44.032-44.032h352.119466V264.123733h-352.119466c-21.981867 0-44.032-22.050133-44.032-44.032v-58.709333c0-21.981867 22.050133-43.963733 44.032-43.963733h454.8608c22.050133 0 44.032 21.981867 44.032 43.963733v374.1696z" p-id="4300" fill="#98dcb3"></path></svg>