<svg t="1582809091582" class="icon" viewBox="0 0 2048 1024" version="1.1" xmlns="http://www.w3.org/2000/svg" p-id="3466" width="128" height="128"><path d="M1995.502933 0h-667.648c-36.6592 0-58.709333 29.354667-58.709333 58.709333v44.032H58.709333c-36.727467 0-58.709333 29.354667-58.709333 58.709334v784.930133c0 36.727467 29.354667 58.709333 58.709333 58.709333h1929.489067c36.6592 0 58.709333-29.354667 58.709333-58.709333V58.709333C2054.144 29.354667 2024.789333 0 1995.434667 0zM513.570133 895.044267H168.7552c-22.050133 0-44.032-21.981867-44.032-44.032v-579.584c0-21.981867 21.981867-44.032 44.032-44.032h58.709333c21.981867 0 43.963733 22.050133 43.963734 44.032v476.910933H520.874667c22.050133 0 44.032 21.981867 44.032 43.963733v58.709334c-19.592533 29.354667-36.6592 44.032-51.336534 44.032z m660.2752-220.091734l-205.482666 205.4144c-14.609067 14.677333-51.336533 14.677333-51.336534 14.677334s-36.6592 0-51.336533-14.677334l-200.021333-205.4144c-14.677333-7.304533-20.0704-29.354667-12.6976-44.032V271.428267c0-21.981867 21.981867-44.032 43.963733-44.032h58.709333c21.981867 0 44.032 22.050133 44.032 44.032V608.938667l124.7232 124.7232 124.7232-124.7232V278.801067c0-22.050133 21.981867-44.032 44.032-44.032h58.709334c21.981867 0 43.963733 21.981867 43.963733 44.032v344.746666c0 14.7456-14.677333 44.100267-21.981867 51.4048z m608.938667 220.091734h-271.496533c-21.981867 0-44.032-21.981867-44.032-44.032v-58.709334c0-21.981867 22.050133-43.963733 44.032-43.963733h58.709333v-462.165333h-44.032c-21.981867 0-44.032-22.050133-44.032-44.100267v-58.709333c0-21.981867 22.050133-43.963733 44.032-43.963734h146.773333c21.981867 0 43.963733 21.981867 43.963734 44.032v557.533867h58.709333c21.981867 0 44.032 22.050133 44.032 44.032v66.013867c-9.762133 29.354667-22.050133 44.032-36.727467 44.032z" p-id="3467" fill="#bfbfbf"></path></svg>