<svg t="1582809646706" class="icon" viewBox="0 0 2048 1024" version="1.1" xmlns="http://www.w3.org/2000/svg" p-id="6481" width="128" height="128"><path d="M1995.502933 0h-667.648c-36.6592 0-58.709333 29.354667-58.709333 58.709333v44.032H58.709333c-36.727467 0-58.709333 29.354667-58.709333 58.709334v784.930133c0 36.727467 29.354667 58.709333 58.709333 58.709333h1929.489067c36.6592 0 58.709333-29.354667 58.709333-58.709333V58.709333C2054.144 29.354667 2024.789333 0 1995.434667 0zM557.533867 851.012267c0 22.050133-21.981867 44.032-43.963734 44.032H168.7552c-22.050133 0-44.032-21.981867-44.032-44.032v-579.584c0-21.981867 21.981867-44.032 44.032-44.032h58.709333c21.981867 0 43.963733 22.050133 43.963734 44.032v476.910933H520.874667c22.050133 0 44.032 21.981867 44.032 43.963733v58.709334h-7.3728z m623.616-227.396267v14.677333c0 14.677333 0 29.354667-7.304534 36.6592l-205.482666 205.4144c-14.609067 14.677333-51.336533 14.677333-51.336534 14.677334s-36.6592 0-51.336533-14.677334L660.2752 674.952533c-14.677333-7.304533-14.677333-29.354667-7.304533-44.032V271.428267c0-21.981867 21.981867-44.032 43.963733-44.032h58.709333c21.981867 0 44.032 22.050133 44.032 44.032V608.938667l124.7232 124.7232 124.7232-124.7232V278.801067c0-22.050133 21.981867-44.032 44.032-44.032h58.709334c21.981867 0 43.963733 21.981867 43.963733 44.032v344.746666h-14.677333zM1929.489067 227.328c0 22.050133-21.981867 44.032-44.032 44.032h-352.119467v161.450667h352.119467c22.050133 0 44.032 21.981867 44.032 43.963733v374.1696c0 22.050133-21.981867 44.032-44.032 44.032h-454.8608c-21.981867 0-44.032-21.981867-44.032-44.032v-58.709333c0-21.981867 22.050133-43.963733 44.032-43.963734h352.119466V579.584h-352.119466c-21.981867 0-44.032-22.050133-44.032-44.032v-374.101333c0-22.050133 22.050133-44.032 44.032-44.032h454.8608c22.050133 0 44.032 21.981867 44.032 43.963733v66.013867z" p-id="6482" fill="#f96e08"></path></svg>