<svg t="1584631715992" class="icon" viewBox="0 0 1024 1024" version="1.1" xmlns="http://www.w3.org/2000/svg" p-id="5435" width="128" height="128"><path d="M871.968663 205.300728 773.319218 205.300728l0 650.69852c0 59.649691-75.449843 65.349364-75.449843 65.349364l-411.648732 0 0 34.098833c0 62.499016 72.19654 68.551531 72.19654 68.551531L874.866056 1023.998977c72.501313 0 72.15154-71.402902 72.15154-71.402902l0-681.945983C947.018619 205.300728 871.968663 205.300728 871.968663 205.300728zM737.768108 816.899267 737.768108 67.474597c0 0-5.100353-67.475619-68.901305-67.475619l-522.24673 0c0 0-69.636647 2.100687-69.636647 67.475619l0 749.424671c0 0 2.899439 71.05006 72.535063 71.05006l518.248879 0C727.618538 887.95035 737.768108 816.899267 737.768108 816.899267zM146.619051 137.099994l313.34906 0 0 68.200735L146.619051 205.300728 146.619051 137.099994zM146.619051 307.574728 668.867826 307.574728l0 34.098833L146.619051 341.673561 146.619051 307.574728zM146.619051 409.874296 668.867826 409.874296l0 34.07531L146.619051 443.949607 146.619051 409.874296zM146.619051 512.150341 668.867826 512.150341l0 34.097811L146.619051 546.248152 146.619051 512.150341zM146.619051 648.550788l0-34.102924L668.867826 614.447864l0 34.102924L146.619051 648.550788zM494.768537 716.749477l174.100311 0 0 34.097811L494.768537 750.847288 494.768537 716.749477z" p-id="5436"></path></svg>