<svg t="1585294308139" class="icon" viewBox="0 0 1024 1024" version="1.1" xmlns="http://www.w3.org/2000/svg" p-id="2366" width="128" height="128"><path d="M690.604651 986.432241 690.604651 619.162791 547.72093 619.162791 547.72093 1021.761491C597.873566 1017.023186 645.869999 1004.878243 690.604651 986.432241L690.604651 986.432241ZM881.116279 847.827154 881.116279 714.418605 738.232558 714.418605 738.232558 963.768777C792.777568 934.175915 841.200907 894.733274 881.116279 847.827154L881.116279 847.827154ZM500.093023 1024 500.093023 428.651163 357.209302 428.651163 357.209302 1003.290529C402.482681 1016.764545 450.442888 1024 500.093023 1024L500.093023 1024ZM309.581395 986.432241 309.581395 547.72093 166.697674 547.72093 166.697674 896.660732C208.576452 934.143252 256.809348 964.672079 309.581395 986.432241L309.581395 986.432241Z" p-id="2367"></path><path d="M512 1024C794.769791 1024 1024 794.769791 1024 512 1024 229.230208 794.769791 0 512 0 229.230208 0 0 229.230208 0 512 0 794.769791 229.230208 1024 512 1024L512 1024 512 1024ZM512 913.297298C290.369622 913.297298 110.702703 733.630378 110.702703 512 110.702703 290.369622 290.369622 110.702703 512 110.702703 733.630378 110.702703 913.297298 290.369622 913.297298 512 913.297298 733.630378 733.630378 913.297298 512 913.297298L512 913.297298 512 913.297298Z" p-id="2368"></path></svg>