<svg t="1585294365669" class="icon" viewBox="0 0 1024 1024" version="1.1" xmlns="http://www.w3.org/2000/svg" p-id="3809" width="128" height="128"><path d="M779 526.1H607.6c-31.5 0.1-57 25.5-57 57v171.4c0.1 31.5 25.5 57 57 57H779c31.5-0.1 57-25.5 57-57V583.1c0-31.4-25.5-57-57-57m-342.5 0H265.1c-31.5 0.1-57 25.5-57 57v171.4c0.1 31.5 25.5 57 57 57h171.4c31.5-0.1 57-25.5 57-57V583.1c-0.1-31.4-25.5-57-57-57M854.9 286L733.6 164.8c-22.3-22.2-58.3-22.2-80.6 0l-16.8 16.8L531.8 286c-10.7 10.6-16.7 25.2-16.7 40.2-0.1 15.2 5.9 29.7 16.7 40.4l16.8 16.8 87.7 87.7 16.8 16.8c22.3 22.2 58.3 22.2 80.6 0l104.5-104.5 16.8-16.8c22.1-22.3 22.1-58.3-0.1-80.6M436.5 183.6H265.1c-31.5 0.1-57 25.5-57 57V412c0.1 31.5 25.5 57 57 57h171.4c31.5-0.1 57-25.5 57-57V240.6c-0.1-31.5-25.5-57-57-57" p-id="3810"></path></svg>