<svg t="1585185824198" class="icon" viewBox="0 0 1024 1024" version="1.1" xmlns="http://www.w3.org/2000/svg" p-id="4118" width="128" height="128"><path d="M962.839633 855.542939c2.310963 0 2.310963 2.310963 4.743556 2.310963 4.257038 1.824445 7.541038 5.230075 9.365483 9.487112v11.798076c-0.486519 4.986816-2.067704 9.852001-4.743557 14.230669-1.824445 4.257038-4.135408 8.270816-7.054519 11.798076-1.216296 4.135408-4.986816 7.05452-9.365483 7.054519-2.797482 1.824445-6.081482 2.675852-9.365483 2.310963-2.554223 0.364889-5.108445-0.486519-7.054519-2.310963-2.310963 0-7.05452-2.432593-9.365483-2.432593h-11.676446c-4.013778 0.608148-7.905927 1.337926-11.676446 2.432593-4.743556 2.310963-6.93289 4.743556-11.676447 7.05452-6.203112 6.568001-10.21689 14.838817-11.676446 23.717781-0.973037 8.149186 0.729778 16.420002 4.743557 23.717781 2.797482 5.473334 1.824445 12.162965-2.310964 16.541632l-7.054519 7.05452c-3.52726 2.919112-7.541038 5.230075-11.676446 7.054519-4.743556 2.310963-9.365483 2.310963-14.109039 4.743556-3.892149 0.608148-7.905927 1.337926-11.676447 2.310964-2.554223 0.364889-5.230075-0.486519-7.054519-2.310964-2.310963-1.702815-4.013778-4.257038-4.743556-7.054519-1.824445-8.635705-6.81126-16.298373-14.109039-21.285188-6.93289-6.568001-16.298373-9.973631-25.785486-9.487113-9.487112-0.12163-18.609336 3.284-25.785485 9.487113-6.203112 6.568001-11.676446 13.62252-16.420002 21.285188-1.702815 2.919112-4.135408 5.351704-7.05452 7.054519 0 2.310963-2.310963 2.310963-7.054519 2.310964-4.013778 0.364889-8.149186-0.486519-11.676446-2.310964-4.743556-2.432593-9.365483-2.432593-14.10904-4.743556-4.257038-1.824445-8.149186-4.257038-11.676446-7.054519-3.52726-1.824445-6.689631-4.135408-9.243853-7.05452-1.824445-1.946074-2.675852-4.500297-2.310963-7.054519-0.12163-4.135408 0.608148-8.149186 2.310963-11.798076 3.040741-6.689631 3.892149-14.109039 2.310963-21.285188-0.608148-7.905927-3.892149-15.446965-9.365482-21.285189-3.52726-4.135408-8.635705-6.689631-14.109039-7.054519-5.230075-2.067704-10.825039-2.919112-16.420003-2.310964-4.743556 0-11.676446 2.310963-16.420002 2.310964h-11.676446c-3.284-2.189334-6.446371-4.500297-9.365483-7.05452l-7.05452-14.230668c-2.554223-4.378667-4.257038-9.122224-4.743556-14.230669-1.216296-3.892149-1.216296-8.027557 0-11.798076-0.729778-5.108445 2.189334-10.095261 7.05452-11.798076 10.095261-2.675852 19.217484-8.514075 25.785485-16.541632 6.081482-6.446371 9.365483-14.838817 9.365483-23.717781 0.973037-9.000594-2.554223-17.757928-9.365483-23.717781-5.108445-7.662668-12.527854-13.500891-21.041929-16.541632l-7.05452-7.05452c-1.824445-2.797482-2.675852-6.081482-2.310963-9.487112-0.12163-4.135408 0.608148-8.149186 2.310963-11.798076 0.12163-4.378667 1.702815-8.635705 4.743557-11.798076 2.310963-4.743556 4.743556-7.05452 7.054519-11.798076 0.729778-2.797482 2.310963-5.351704 4.743556-7.054519 4.135408-3.162371 9.852001-3.162371 14.109039 0 7.419408 3.162371 15.568595 3.892149 23.474522 2.310963 8.878964-1.459556 17.028151-5.594964 23.474522-11.798076 2.919112-3.648889 5.230075-7.662668 7.05452-11.798075 1.824445-4.500297 2.554223-9.365483 2.189333-14.230669V661.665281c0.243259-1.824445-0.608148-3.770519-2.189333-4.743556v-4.743557c2.554223-5.108445 5.594964-9.852001 9.243853-14.230668l14.109039-7.05452c4.743556-2.310963 9.365483-2.310963 14.109039-4.743556h11.676446c2.554223-0.364889 5.230075 0.608148 7.05452 2.310963 2.310963 2.310963 2.310963 4.743556 4.743556 7.05452 2.432593 8.392446 7.297779 15.811854 14.109039 21.285188 6.689631 5.473334 14.838817 8.878964 23.474522 9.487113 9.122224 0.243259 18.001188-2.310963 25.785485-7.05452 7.297779-5.473334 12.892743-12.892743 16.420003-21.285188 0.729778-2.797482 2.310963-5.351704 4.743556-7.05452 0.851408-3.040741 3.892149-5.108445 7.054519-4.743556 4.013778-0.364889 8.149186 0.486519 11.676446 2.310963 4.986816 0.486519 9.852001 2.067704 14.10904 4.743556 4.257038 1.824445 8.149186 4.257038 11.676446 7.05452 2.919112 2.675852 5.230075 5.959853 7.054519 9.487112 1.824445 1.946074 2.675852 4.500297 2.310964 7.05452 0 2.432593 0 4.743556-2.310964 4.743556-3.040741 7.541038-3.892149 15.690224-2.310963 23.717781 1.459556 8.878964 5.594964 17.14978 11.676446 23.717782 6.446371 6.203112 14.595558 10.33852 23.352892 11.798075 8.878964 0.973037 17.879558-0.729778 25.785486-4.743556 1.824445-1.824445 4.500297-2.675852 7.054519-2.310963 2.797482 0.729778 5.351704 2.432593 7.05452 4.743556 4.500297 5.108445 8.392446 10.703409 11.676446 16.541632 2.310963 7.05452 4.743556 16.663262 7.054519 23.717781 0.364889 4.135408-0.486519 8.149186-2.310963 11.798076-1.702815 2.310963-4.257038 4.013778-7.05452 4.743556-9.243853 1.824445-17.14978 8.027557-21.041928 16.541632-6.446371 7.05452-9.852001 16.420002-9.365483 26.028745-0.243259 8.392446 2.310963 16.663262 7.054519 23.717781 3.892149 6.446371 10.46015 11.433187 18.122818 13.98741z m-93.654829-75.775271c-4.865186-10.33852-11.189928-19.947262-18.730965-28.461337-8.027557-8.149186-17.514669-14.595558-28.096449-18.974225-10.21689-4.865186-21.528448-7.297779-32.840005-7.05452-12.041335 0.12163-23.961041 2.432593-35.150968 7.05452-9.852001 5.473334-19.339114 11.798076-28.096448 18.974225-7.05452 8.878964-13.379261 18.366077-18.730966 28.461337-2.675852 11.676446-4.257038 23.596152-4.743556 35.515857 0.12163 12.162965 2.432593 24.2043 7.054519 35.515857 4.257038 10.581779 10.703409 20.312151 18.730966 28.461338 8.027557 8.149186 17.514669 14.595558 28.096449 18.974225 10.703409 2.919112 21.771707 4.500297 32.840004 4.743556 12.041335-0.12163 23.961041-2.432593 35.150968-7.05452 10.581779-4.378667 20.190521-10.825039 28.096449-18.974224 8.149186-8.149186 14.473928-17.757928 18.730966-28.461338 2.919112-10.825039 4.500297-21.893337 4.743556-33.204894 0-12.162965-2.432593-24.2043-7.05452-35.515857z m-332.048937 70.666825c0 57.409193 17.879558 113.358831 51.084452 160.186246-188.282694 0.12163-396.147761 0.364889-447.718731 0-91.100606-0.729778-94.019717-45.732747-94.019718-87.938235 0-203.4864 138.536168-385.687611 324.26464-438.353249-81.735123-43.786673-122.602684-125.278537-122.602684-219.784772 1.216296-138.536168 113.84535-250.192184 252.381518-250.192185s251.165222 111.656016 252.381518 250.192185c0 94.384606-44.88134 175.9981-126.616463 219.784772 60.936453 17.636299 117.37261 48.28697 165.29469 89.76268-144.009502 11.919705-254.570852 132.089797-254.449222 276.342558z m0 0" p-id="4119"></path></svg>