<svg t="1584629749521" class="icon" viewBox="0 0 1024 1024" version="1.1" xmlns="http://www.w3.org/2000/svg" p-id="1592" width="128" height="128"><path d="M951.63177 220.29L576.17177 16.39a133.832 133.832 0 0 0-128.34 0L72.37177 220.29C27.56177 244.9-0.20823 292.04 0.00177 343.16v542.2c-0.38 75.9 60.63 137.86 136.54 138.64h750.92c76.01-0.79 137.06-62.91 136.53-138.91V342.82c0.09-51-27.66-97.98-72.36-122.53zM921.60177 850.27c0.27 38.01-30.26 69.08-68.27 69.49H170.67177c-38.02-0.38-68.57-31.47-68.27-69.49V349.92c-0.26-25.6 13.67-49.24 36.18-61.44l341.33-185.33a66.89 66.89 0 0 1 64.17 0l341.33 185.33a69.053 69.053 0 0 1 36.18 61.44v500.35zM699.73177 711.23H324.27177c-28.78 1.04-51.27 25.22-50.23 54 0.98 27.32 22.91 49.24 50.23 50.23h375.46c28.78-1.04 51.27-25.22 50.23-54-0.98-27.32-22.9-49.25-50.23-50.23z" p-id="1593"></path></svg>