<svg t="1581390700759" class="icon" viewBox="0 0 1024 1024" version="1.1" xmlns="http://www.w3.org/2000/svg" p-id="1846" width="128" height="128"><path d="M715.525881 66.861804 308.474119 66.861804c-40.377616 0-73.17151 32.79287-73.17151 73.116251l0 743.988632c0 40.322357 32.793894 73.170486 73.17151 73.170486l407.052786 0c40.376593 0 73.170486-32.848129 73.170486-73.170486L788.697391 139.978055C788.696368 99.654674 755.902474 66.861804 715.525881 66.861804zM308.474119 117.388571l407.052786 0c12.495592 0 22.644743 10.149151 22.644743 22.589484l0 601.793072L285.829376 741.771127 285.829376 139.978055C285.829376 127.537721 295.978527 117.388571 308.474119 117.388571zM444.175777 839.551104c0-38.631856 31.266098-69.842695 69.842695-69.842695 38.576597 0 69.842695 31.210839 69.842695 69.842695 0 33.666774-24.335245 60.45693-56.092529 67.060325l-27.500331 0C468.512045 900.008035 444.175777 873.217878 444.175777 839.551104z" p-id="1847"></path></svg>