<svg t="1582097162678" class="icon" viewBox="0 0 1024 1024" version="1.1" xmlns="http://www.w3.org/2000/svg" p-id="6931" width="128" height="128"><path d="M133.6 786.144l52.8-36.16C262.24 860.8 385.856 928 520.64 928 745.472 928 928 741.888 928 512h64c0 264.96-210.912 480-471.392 480-156.16 0-299.456-77.92-387.008-205.856z m756.8-548.288l-52.8 36.16C761.76 163.2 638.144 96 503.424 96 278.528 96 96 282.112 96 512H32C32 247.04 242.912 32 503.424 32c156.16 0 299.424 77.92 386.976 205.856z" p-id="6932"></path><path d="M117.344 736h64v192h-64zM853.344 96h64v192h-64z" p-id="6933"></path><path d="M469.344 373.344v256l170.656-128-170.656-128z m-64 384v-512l341.312 256-341.312 256z" p-id="6934"></path></svg>