<svg t="1589808651493" class="icon" viewBox="0 0 1251 1024" version="1.1" xmlns="http://www.w3.org/2000/svg" p-id="9054" width="200" height="200"><path d="M117.077333 903.68c52.707556-48.071111 170.211556-8.618667 261.12-11.434667a744.419556 744.419556 0 0 1-93.895111-61.013333c-36.124444 9.386667-136.504889 22.528-261.233778-69.262222 68.892444-34.190222 164.522667 42.126222 250.624 60.928a563.683556 563.683556 0 0 1-87.324444-86.129778c-14.165333 3.640889-111.729778 21.276444-179.114667-159.146667 71.850667 15.502222 99.697778 115.683556 177.066667 156.615111-37.176889-46.990222-65.024-99.982222-79.957333-158.492444C77.368889 572.472889 8.391111 549.717333 0 404.821333c54.584889 25.742222 55.978667 105.984 101.233778 157.667556C93.098667 524.828444 69.176889 496.64 71.765333 456.248889c2.332444-35.328 19.541333-82.318222 69.063111-141.824 31.630222 77.084444-60.529778 154.453333-28.728888 249.998222-0.824889-36.010667 18.375111-101.973333 151.523555-152.263111-9.841778 70.030222-108.544 98.332444-144.526222 173.255111a453.688889 453.688889 0 0 0 61.895111 114.261333c-12.856889-35.527111-20.394667-111.644444 92.586667-197.404444 12.970667 70.229333-70.798222 129.962667-81.322667 211.996444a556.259556 556.259556 0 0 0 82.289778 82.545778c-21.589333-26.737778-50.688-93.866667 39.395555-216.746666 31.061333 63.516444-38.968889 145.351111-25.457777 227.84a738.673778 738.673778 0 0 0 101.376 65.479111c-34.929778-29.525333-79.701333-112.355556-15.872-255.374223 45.198222 61.468444-12.401778 187.335111 38.798222 267.207112 29.866667 14.876444 60.586667 28.046222 91.960889 39.623111-32.540444-24.604444-69.774222-81.351111-46.336-211.541334 59.790222 47.217778 32.056889 150.186667 81.521777 223.744a1077.617778 1077.617778 0 0 0 199.111112 44.942223c-0.796444 4.010667-1.592889 14.364444-2.986667 19.882666a960.853333 960.853333 0 0 1-209.92-45.397333c-31.516444 25.258667-114.830222 74.808889-261.632 47.502222 45.454222-59.249778 161.735111-34.446222 247.182222-52.536889a903.566222 903.566222 0 0 1-118.101333-51.000889c-37.461333 19.143111-128.881778 49.948444-276.48 3.271111" fill="#E3BA49" p-id="9055"></path><path d="M1133.824 903.68c-52.650667-48.071111-169.813333-8.618667-260.579556-11.434667a742.855111 742.855111 0 0 0 93.752889-61.013333c35.982222 9.386667 136.106667 22.528 260.608-69.262222-68.778667-34.190222-164.124444 42.126222-250.026666 60.928a562.289778 562.289778 0 0 0 87.04-86.129778c14.165333 3.640889 111.502222 21.276444 178.744889-159.146667-71.68 15.502222-99.498667 115.683556-176.696889 156.615111 37.12-46.990222 64.910222-99.982222 79.815111-158.492444 26.908444-3.271111 95.800889-26.026667 104.106666-170.922667-54.385778 25.742222-55.779556 105.984-100.977777 157.667556 8.163556-37.660444 32.028444-65.877333 29.383111-106.24-2.275556-35.328-19.484444-82.318222-68.835556-141.824-31.658667 77.084444 60.302222 154.453333 28.586667 249.998222 0.853333-36.010667-18.346667-101.973333-151.210667-152.263111 9.927111 70.030222 108.373333 98.332444 144.298667 173.255111a454.144 454.144 0 0 1-61.838222 114.261333c12.913778-35.527111 20.423111-111.644444-92.302223-197.404444-12.970667 70.229333 70.542222 129.962667 81.066667 211.996444a558.990222 558.990222 0 0 1-82.062222 82.545778c21.475556-26.737778 50.545778-93.866667-39.367111-216.746666-31.004444 63.516444 38.912 145.351111 25.400889 227.84a728.974222 728.974222 0 0 1-101.12 65.479111c34.901333-29.525333 79.530667-112.355556 15.815111-255.374223-45.084444 61.468444 12.373333 187.335111-38.684445 267.207112a911.246222 911.246222 0 0 1-91.790222 39.623111c32.455111-24.604444 69.688889-81.351111 46.307556-211.541334-59.733333 47.217778-32.056889 150.186667-81.351111 223.744a1073.777778 1073.777778 0 0 1-198.741334 44.942223c0.796444 4.010667 1.678222 14.364444 2.986667 19.882666a956.245333 956.245333 0 0 0 209.464889-45.397333c31.516444 25.258667 114.631111 74.808889 261.063111 47.502222-45.340444-59.249778-161.393778-34.446222-246.613333-52.536889a896.739556 896.739556 0 0 0 117.816888-51.000889c37.432889 19.143111 128.654222 49.948444 275.939556 3.271111" fill="#E3BA49" p-id="9056"></path><path d="M605.098667 274.119111h30.008889c29.724444 0 52.792889-8.192 69.176888-24.604444 16.384-15.815111 24.576-36.380444 24.576-61.667556-0.568889-25.543111-9.016889-46.506667-25.429333-62.890667-16.384-15.843556-37.489778-24.035556-63.317333-24.604444-18.602667 0-35.555556 5.973333-50.830222 17.92-16.128 11.946667-26.936889 30.435556-32.512 55.409778h-87.068445c4.437333-44.999111 22.641778-82.915556 54.584889-113.749334 31.374222-30.549333 68.892444-46.08 112.497778-46.648888 55.267556 0.568889 99.157333 18.204444 131.669333 52.906666 31.089778 33.905778 46.933333 73.898667 47.502222 120.007111 0 23.324444-4.181333 45.824-12.515555 67.498667-9.728 21.674667-27.079111 40.96-52.081778 57.912889 25.543111 16.668444 44.032 36.693333 55.409778 60.017778 10.837333 23.324444 16.270222 47.786667 16.270222 73.329777-0.568889 56.945778-18.204444 101.802667-52.906667 134.570667-34.190222 33.621333-78.08 50.688-131.697777 51.256889-41.386667 0-78.051556-13.340444-109.994667-39.992889-31.943111-26.680889-52.622222-65.28-62.065778-115.854222h87.068445c7.765333 20.280889 18.773333 36.693333 32.910222 49.180444 14.449778 13.056 33.621333 19.569778 57.514666 19.569778 25.543111 0 47.075556-8.732444 64.568889-26.254222 17.777778-16.384 26.965333-39.708444 27.505778-69.973333-0.568889-30.862222-9.728-54.727111-27.505778-71.68-17.493333-16.384-39.708444-24.576-66.645333-24.576h-36.693333v-77.084445z" fill="#F2A044" p-id="9057"></path></svg>