<svg t="1582097113021" class="icon" viewBox="0 0 1024 1024" version="1.1" xmlns="http://www.w3.org/2000/svg" p-id="6145" width="128" height="128"><path d="M-34.13333333-34.13333333L1058.13333333-34.13333333-34.13333333-34.13333333Z" p-id="6146"></path><path d="M-34.13333333 993.8944L1058.13333333 993.8944-34.13333333 993.8944Z" p-id="6147"></path><path d="M-34.13333333 929.5872L1058.13333333 929.5872-34.13333333 929.5872Z" p-id="6148"></path><path d="M-34.13333333 865.34826667L1058.13333333 865.34826667-34.13333333 865.34826667Z" p-id="6149"></path><path d="M-34.13333333 801.04106667L1058.13333333 801.04106667-34.13333333 801.04106667Z" p-id="6150"></path><path d="M-34.13333333 736.80213333L1058.13333333 736.80213333-34.13333333 736.80213333Z" p-id="6151"></path><path d="M-34.13333333 672.5632L1058.13333333 672.5632-34.13333333 672.5632Z" p-id="6152"></path><path d="M-34.13333333 608.256L1058.13333333 608.256-34.13333333 608.256Z" p-id="6153"></path><path d="M-34.13333333 544.01706667L1058.13333333 544.01706667-34.13333333 544.01706667Z" p-id="6154"></path><path d="M-34.13333333 479.98293333L1058.13333333 479.98293333-34.13333333 479.98293333Z" p-id="6155"></path><path d="M-34.13333333 415.744L1058.13333333 415.744-34.13333333 415.744Z" p-id="6156"></path><path d="M-34.13333333 351.4368L1058.13333333 351.4368-34.13333333 351.4368Z" p-id="6157"></path><path d="M-34.13333333 287.19786667L1058.13333333 287.19786667-34.13333333 287.19786667Z" p-id="6158"></path><path d="M-34.13333333 222.95893333L1058.13333333 222.95893333-34.13333333 222.95893333Z" p-id="6159"></path><path d="M-34.13333333 158.65173333L1058.13333333 158.65173333-34.13333333 158.65173333Z" p-id="6160"></path><path d="M-34.13333333 94.4128L1058.13333333 94.4128-34.13333333 94.4128Z" p-id="6161"></path><path d="M-34.13333333 30.1056L1058.13333333 30.1056-34.13333333 30.1056Z" p-id="6162"></path><path d="M-34.13333333 1058.13333333L1058.13333333 1058.13333333-34.13333333 1058.13333333Z" p-id="6163"></path><path d="M-34.13333333-34.13333333L-34.13333333 1058.13333333-34.13333333-34.13333333Z" p-id="6164"></path><path d="M993.8944-34.13333333L993.8944 1058.13333333 993.8944-34.13333333Z" p-id="6165"></path><path d="M929.5872-34.13333333L929.5872 1058.13333333 929.5872-34.13333333Z" p-id="6166"></path><path d="M865.34826667-34.13333333L865.34826667 1058.13333333 865.34826667-34.13333333Z" p-id="6167"></path><path d="M801.04106667-34.13333333L801.04106667 1058.13333333 801.04106667-34.13333333Z" p-id="6168"></path><path d="M736.80213333-34.13333333L736.80213333 1058.13333333 736.80213333-34.13333333Z" p-id="6169"></path><path d="M672.5632-34.13333333L672.5632 1058.13333333 672.5632-34.13333333Z" p-id="6170"></path><path d="M608.256-34.13333333L608.256 1058.13333333 608.256-34.13333333Z" p-id="6171"></path><path d="M544.01706667-34.13333333L544.01706667 1058.13333333 544.01706667-34.13333333Z" p-id="6172"></path><path d="M479.98293333-34.13333333L479.98293333 1058.13333333 479.98293333-34.13333333Z" p-id="6173"></path><path d="M415.744-34.13333333L415.744 1058.13333333 415.744-34.13333333Z" p-id="6174"></path><path d="M351.4368-34.13333333L351.4368 1058.13333333 351.4368-34.13333333Z" p-id="6175"></path><path d="M287.19786667-34.13333333L287.19786667 1058.13333333 287.19786667-34.13333333Z" p-id="6176"></path><path d="M222.95893333-34.13333333L222.95893333 1058.13333333 222.95893333-34.13333333Z" p-id="6177"></path><path d="M158.65173333-34.13333333L158.65173333 1058.13333333 158.65173333-34.13333333Z" p-id="6178"></path><path d="M94.4128-34.13333333L94.4128 1058.13333333 94.4128-34.13333333Z" p-id="6179"></path><path d="M30.1056-34.13333333L30.1056 1058.13333333 30.1056-34.13333333Z" p-id="6180"></path><path d="M1058.13333333-34.13333333L1058.13333333 1058.13333333 1058.13333333-34.13333333Z" p-id="6181"></path><path d="M955.8016 207.39413333L68.26666667 207.39413333C49.42506667 207.39413333 34.13333333 222.75413333 34.13333333 241.80053333l0 540.39893334c0 19.0464 15.29173333 34.54293333 34.13333334 34.54293333l887.53493333 0c18.70506667 0 34.06506667-15.49653333 34.06506667-34.54293333L989.86666667 241.80053333C989.86666667 222.75413333 974.50666667 207.39413333 955.8016 207.39413333zM469.33333333 248.49066667l85.26506667 0 0 86.08426666L469.33333333 334.57493333 469.33333333 248.49066667 469.33333333 248.49066667zM209.44213333 773.3248l-85.33333333 0 0-86.016 85.33333333 0L209.44213333 773.3248zM209.44213333 334.57493333l-85.33333333 0L124.1088 248.49066667l85.33333333 0L209.44213333 334.57493333zM382.08853333 773.3248L296.82346667 773.3248l0-86.016 85.26506666 0L382.08853333 773.3248zM382.08853333 334.57493333L296.82346667 334.57493333 296.82346667 248.49066667l85.26506666 0L382.08853333 334.57493333zM554.5984 773.3248L469.33333333 773.3248l0-86.016 85.26506667 0L554.5984 773.3248zM421.00053333 618.01813333L421.00053333 405.98186667 603.06773333 512 421.00053333 618.01813333zM727.2448 773.3248L641.97973333 773.3248l0-86.016 85.26506667 0L727.2448 773.3248zM727.2448 334.57493333L641.97973333 334.57493333 641.97973333 248.49066667l85.26506667 0L727.2448 334.57493333zM899.8912 773.3248l-85.26506667 0 0-86.016 85.26506667 0L899.8912 773.3248zM899.8912 334.57493333l-85.26506667 0L814.62613333 248.49066667l85.26506667 0L899.8912 334.57493333z" p-id="6182"></path></svg>