<svg t="1582097059028" class="icon" viewBox="0 0 1024 1024" version="1.1" xmlns="http://www.w3.org/2000/svg" p-id="5295" width="128" height="128"><path d="M1017.25430378 571.3591466L544.74898534 788.16956703c-5.89158752 2.35663501-11.78317502 4.71327001-18.85308002 4.71327s-12.96149253-1.17831749-18.85308004-4.71327L33.35918933 571.3591466c-17.67476253-8.24822251-30.63625506-27.10130255-30.63625506-49.48933509 0-29.45793756 22.38803254-54.2026051 49.48933509-54.20260512 7.06990501 0 12.96149253 1.17831749 18.85308004 4.71327003l453.6522384 207.3838804 453.6522384-207.3838804c5.89158752-2.35663501 11.78317502-4.71327001 18.85308005-4.71327003 27.10130255 0 49.48933509 24.74466755 49.48933508 54.20260512 1.17831749 22.38803254-11.78317502 41.24111259-29.45793755 49.48933509z m0-234.48518296L544.74898534 553.68438409c-5.89158752 2.35663501-11.78317502 4.71327001-18.85308002 4.71326999s-12.96149253-1.17831749-18.85308004-4.71326999L33.35918933 336.87396364c-17.67476253-8.24822251-30.63625506-27.10130255-30.63625506-49.48933511s12.96149253-42.41943008 30.63625506-49.48933508l472.50531844-215.63210293c5.89158752-2.35663501 11.78317502-4.71327001 18.85308003-4.71327001s12.96149253 1.17831749 18.85308004 4.71327001L1017.25430378 236.71697595c17.67476253 8.24822251 30.63625506 27.10130255 30.63625506 49.48933508 0 23.56635005-12.96149253 42.41943008-30.63625506 50.66765261zM52.21226936 702.15238938c7.06990501 0 12.96149253 1.17831749 18.85308004 4.71326998L525.89590532 914.24953979l453.6522384-207.38388043c5.89158752-2.35663501 11.78317502-4.71327001 18.85308002-4.71326998 27.10130255 0 49.48933509 24.74466755 49.4893351 54.20260508 0 22.38803254-12.96149253 42.41943008-30.63625506 49.48933511L544.74898534 1021.4764325c-5.89158752 2.35663501-11.78317502 4.71327001-18.85308002 4.71327s-12.96149253-1.17831749-18.85308004-4.71327L33.35918933 805.84432957c-17.67476253-8.24822251-30.63625506-27.10130255-30.63625506-49.48933511 0-30.63625506 22.38803254-54.2026051 49.48933509-54.20260508z" p-id="5296"></path></svg>