<svg t="1584155626894" class="icon" viewBox="0 0 1024 1024" version="1.1" xmlns="http://www.w3.org/2000/svg" p-id="4482" width="128" height="128"><path d="M905.878 433.186L330.881 88.287l-8.468-4.306c-4.865-2.067-49.249-20.028-96.467-20.028-81.698 0-134.564 53.26-134.564 135.554v654.621l3.552 10.097c12.336 35.614 53.777 95.821 130.215 95.821 24.305 0 49.457-6.437 77.17-20.344l568.416-315.915 5.576-3.552c39.138-27.161 81.426-95.419 37.896-172.31l-8.329-14.739M240.062 826.43c-8.274 4.126-12.938 4.779-14.445 4.901-0.789-0.646-1.78-1.751-2.827-3.1V199.508c0-2.77 0.144-5.03 0.402-6.702 12.149-0.631 34.861 4.959 44.197 8.31L795.29 517.727 240.062 826.43m0 0" p-id="4483"></path></svg>